<svg width="600" height="291" viewBox="0 0 384 291" fill="none" xmlns="http://www.w3.org/2000/svg">
<path d="M329.995 116.002C313.118 49.7793 254.8 1.97572 186.348 0.0583551C150.159 -0.955296 112.078 11.0208 84.3529 52.9297C34.7906 127.846 87.3986 179.616 124.076 204.216C141.795 216.124 157.761 230.444 171.512 246.759C196.286 276.093 243.945 312.546 300.706 255.43C341.846 214.033 341.238 160.113 329.995 116.002Z" fill="#F2F2F2"/>
<path opacity="0.1" d="M253.976 178.692L288.706 144.143L253.976 109.595L264.565 99.0647L309.882 144.143L264.565 189.222L253.976 178.692Z" fill="black"/>
<path opacity="0.1" d="M154.8 146.608H168.918V132.521H154.8V146.608ZM225.671 132.521H211.553V146.608H225.671V132.521ZM183.176 146.608H197.294V132.521H183.176V146.608Z" fill="black"/>
<path opacity="0.1" d="M135.671 178.339L100.906 143.791L135.635 109.243L125.047 98.7126L79.7647 143.791L125.082 188.869L135.671 178.339Z" fill="black"/>
<path d="M384 264.939C384 270.774 298.039 291 192 291C85.9613 291 0 270.774 0 264.939C0 259.104 85.9613 269.869 192 269.869C298.039 269.869 384 259.104 384 264.939Z" fill="#3F3D56"/>
<path opacity="0.1" d="M384 264.939C384 270.774 298.039 291 192 291C85.9613 291 0 270.774 0 264.939C0 259.104 85.9613 269.869 192 269.869C298.039 269.869 384 259.104 384 264.939Z" fill="black"/>
<path d="M192 275.504C298.039 275.504 384 270.774 384 264.939C384 259.104 298.039 254.374 192 254.374C85.9613 254.374 0 259.104 0 264.939C0 270.774 85.9613 275.504 192 275.504Z" fill="#3F3D56"/>
<path d="M223.304 214.106C223.304 236.651 237.479 254.894 254.995 254.894L223.304 214.106Z" fill="#3F3D56"/>
<path d="M254.995 254.894C254.995 232.096 270.813 213.648 290.361 213.648L254.995 254.894Z" fill="#217DBD"/>
<path d="M234.787 216.15C234.787 237.565 243.825 254.894 254.995 254.894L234.787 216.15Z" fill="#217DBD"/>
<path d="M254.995 254.894C254.995 225.763 273.278 202.19 295.872 202.19L254.995 254.894Z" fill="#3F3D56"/>
<path d="M248.328 255.181C248.328 255.181 252.823 255.043 254.177 254.081C255.532 253.118 261.091 251.969 261.427 253.513C261.763 255.056 268.181 261.189 263.107 261.23C258.033 261.271 251.317 260.442 249.965 259.62C248.613 258.798 248.328 255.181 248.328 255.181Z" fill="#A8A8A8"/>
<path opacity="0.2" d="M263.197 260.693C258.123 260.734 251.407 259.904 250.056 259.083C249.026 258.457 248.616 256.211 248.478 255.176C248.383 255.18 248.328 255.181 248.328 255.181C248.328 255.181 248.613 258.798 249.965 259.62C251.317 260.442 258.033 261.271 263.107 261.23C264.571 261.218 265.077 260.699 265.049 259.928C264.846 260.394 264.287 260.684 263.197 260.693Z" fill="black"/>
<path d="M305.482 134.831C305.482 134.831 294.616 126.599 293.791 129.616C292.966 132.634 301.764 139.493 301.764 139.493L305.482 134.831Z" fill="#FFB9B9"/>
<path opacity="0.1" d="M305.482 134.831C305.482 134.831 294.616 126.599 293.791 129.616C292.966 132.634 301.764 139.493 301.764 139.493L305.482 134.831Z" fill="black"/>
<path d="M341.355 108.767C341.355 108.767 328.433 131.811 328.158 135.103C327.883 138.395 327.883 138.67 326.783 138.395C325.684 138.121 310.562 136.475 309.187 137.024C307.813 137.572 305.063 133.732 305.063 133.732C305.063 133.732 299.839 138.944 300.939 140.041C302.039 141.139 305.338 141.687 305.888 143.059C306.438 144.431 307.263 145.802 309.737 145.528C312.212 145.254 328.983 149.918 331.182 149.095C333.382 148.272 333.932 146.9 335.031 146.9C336.131 146.9 338.331 145.802 338.331 145.528C338.331 145.254 346.029 130.714 346.029 130.714C346.029 130.714 355.102 110.961 341.355 108.767Z" fill="#D0CDE1"/>
<path opacity="0.1" d="M341.355 108.767C341.355 108.767 328.433 131.811 328.158 135.103C327.883 138.395 327.883 138.67 326.783 138.395C325.684 138.121 310.562 136.475 309.187 137.024C307.813 137.572 305.063 133.732 305.063 133.732C305.063 133.732 299.839 138.944 300.939 140.041C302.039 141.139 305.338 141.687 305.888 143.059C306.438 144.431 307.263 145.802 309.737 145.528C312.212 145.254 328.983 149.918 331.182 149.095C333.382 148.272 333.932 146.9 335.031 146.9C336.131 146.9 338.331 145.802 338.331 145.528C338.331 145.254 346.029 130.714 346.029 130.714C346.029 130.714 355.102 110.961 341.355 108.767Z" fill="black"/>
<path d="M322.607 93.5743C322.49 95.0312 322.514 96.4959 322.678 97.9483C323.095 101.1 324.549 104.386 323.176 107.328C322.677 108.396 321.833 109.326 321.373 110.407C320.399 112.695 321.282 115.232 321.149 117.667C320.978 120.813 318.973 123.844 315.923 125.568C321.134 125.729 326.089 123.158 329.368 119.655C332.647 116.152 334.472 111.807 335.841 107.46C336.545 105.419 336.996 103.299 337.184 101.149C337.293 99.9131 337.148 98.6684 336.758 97.4909C336.276 96.3406 335.642 95.26 334.872 94.2779C334.051 93.1262 333.208 91.9518 331.997 91.0948C330.505 90.0393 327.628 88.9795 325.649 89.1331C323.221 89.3215 322.709 91.8931 322.607 93.5743Z" fill="#2F2E41"/>
<path d="M330.632 102.182C330.632 102.182 333.657 112.882 331.182 115.899C328.708 118.917 346.029 114.528 346.029 114.528C346.029 114.528 337.506 106.023 341.63 100.536L330.632 102.182Z" fill="#FFB9B9"/>
<path opacity="0.1" d="M330.632 102.182C330.632 102.182 333.657 112.882 331.182 115.899C328.708 118.917 346.029 114.528 346.029 114.528C346.029 114.528 337.506 106.023 341.63 100.536L330.632 102.182Z" fill="black"/>
<path d="M253.976 172L288.706 137.452L253.976 102.903L264.565 92.3734L309.882 137.452L264.565 182.53L253.976 172Z" fill="#217DBD"/>
<path d="M320.735 244.839V252.795L324.859 257.733L328.433 256.087L327.333 244.565L320.735 244.839Z" fill="#FFB9B9"/>
<path d="M322.384 252.247C322.384 252.247 321.285 248.406 319.36 251.149C317.435 253.893 315.511 259.928 314.411 260.202C313.311 260.477 305.613 268.981 313.311 268.981C321.01 268.981 323.484 265.415 323.484 265.415C323.484 265.415 331.182 262.397 331.182 261.849C331.182 261.3 330.083 251.149 329.533 251.149C328.983 251.149 328.708 253.07 327.333 253.07C325.959 253.07 322.384 252.247 322.384 252.247Z" fill="#2F2E41"/>
<path d="M339.156 246.211L338.881 253.619L345.479 256.362V245.663L339.156 246.211Z" fill="#FFB9B9"/>
<path d="M346.304 253.618C346.304 253.618 342.73 249.778 340.805 250.601C339.853 250.983 338.934 251.442 338.056 251.972C338.056 251.972 336.956 255.539 336.406 258.556C335.856 261.574 335.581 262.946 335.031 264.043C334.482 265.141 333.932 269.256 339.43 269.804C344.929 270.353 346.579 267.335 346.579 267.335L347.954 260.202C347.954 260.202 347.404 253.618 346.304 253.618Z" fill="#2F2E41"/>
<path d="M324.309 167.201C324.309 167.201 316.336 185.033 317.435 201.219C317.435 201.219 314.686 207.529 316.336 217.405C317.985 227.282 320.185 247.034 320.185 247.034C320.185 247.034 327.608 247.857 328.158 246.485C328.158 246.485 328.708 232.768 329.258 232.22C329.808 231.671 328.983 219.051 328.158 216.582C327.333 214.113 335.856 189.697 335.856 189.697L333.657 159.245L324.309 167.201Z" fill="#2F2E41"/>
<path opacity="0.1" d="M324.309 167.201C324.309 167.201 316.336 185.033 317.435 201.219C317.435 201.219 314.686 207.529 316.336 217.405C317.985 227.282 320.185 247.034 320.185 247.034C320.185 247.034 327.608 247.857 328.158 246.485C328.158 246.485 328.708 232.768 329.258 232.22C329.808 231.671 328.983 219.051 328.158 216.582C327.333 214.113 335.856 189.697 335.856 189.697L333.657 159.245L324.309 167.201Z" fill="black"/>
<path d="M322.109 166.104L327.333 177.352C327.333 177.352 329.808 202.865 331.182 206.157C331.182 206.157 331.732 215.485 334.207 218.503C336.681 221.52 338.606 248.132 338.606 248.132C338.606 248.132 345.479 250.052 346.029 248.132C346.579 246.211 348.228 233.043 348.228 233.043C348.228 233.043 348.778 221.795 345.754 214.388C342.73 206.98 349.328 180.369 349.328 180.369C349.328 180.369 356.202 167.475 346.304 157.05L322.109 166.104Z" fill="#2F2E41"/>
<path d="M336.681 105.474C342.907 105.474 347.954 100.439 347.954 94.2264C347.954 88.0144 342.907 82.9785 336.681 82.9785C330.456 82.9785 325.409 88.0144 325.409 94.2264C325.409 100.439 330.456 105.474 336.681 105.474Z" fill="#FFB9B9"/>
<path d="M347.129 111.236C347.129 111.236 335.306 111.236 333.657 112.607C333.249 112.995 332.708 113.21 332.145 113.21C331.582 113.21 331.04 112.995 330.633 112.607C330.633 112.607 326.508 112.882 325.409 116.174C324.309 119.466 321.01 123.855 321.01 123.855C321.01 123.855 316.061 127.422 318.81 136.749C321.56 146.077 319.36 161.166 319.36 161.166C319.36 161.166 317.161 164.458 319.36 165.829C321.56 167.201 322.384 167.75 322.109 168.847C321.835 169.944 347.129 159.794 347.129 157.873C347.129 155.953 346.579 154.307 347.129 153.484C347.679 152.661 348.229 151.289 347.679 149.918C347.129 148.546 348.229 148.272 347.954 146.9C347.679 145.528 349.328 135.378 350.428 130.988C351.528 126.599 351.253 111.51 347.129 111.236Z" fill="#D0CDE1"/>
<path d="M305.482 138.123C305.482 138.123 294.616 129.891 293.791 132.908C292.966 135.926 301.764 142.785 301.764 142.785L305.482 138.123Z" fill="#FFB9B9"/>
<path d="M341.355 112.607C341.355 112.607 328.433 135.652 328.158 138.944C327.883 142.236 327.883 142.51 326.783 142.236C325.684 141.962 310.562 140.316 309.187 140.864C307.813 141.413 305.063 137.572 305.063 137.572C305.063 137.572 299.839 142.785 300.939 143.882C302.039 144.979 305.338 145.528 305.888 146.9C306.438 148.272 307.263 149.643 309.737 149.369C312.212 149.095 328.983 153.758 331.182 152.935C333.382 152.112 333.932 150.741 335.031 150.741C336.131 150.741 338.331 149.643 338.331 149.369C338.331 149.095 346.029 134.555 346.029 134.555C346.029 134.555 355.102 114.802 341.355 112.607Z" fill="#D0CDE1"/>
<path d="M331.099 101.413C330.943 100.299 330.371 99.288 330.078 98.2019C329.848 97.3327 329.797 96.4261 329.928 95.5367C330.059 94.6473 330.368 93.7934 330.838 93.0265C332.455 90.4207 335.63 89.2666 337.844 87.1422C337.889 88.2243 338.642 89.1491 339.474 89.845C340.305 90.5409 341.259 91.1055 341.964 91.9297C342.64 92.7992 343.133 93.7963 343.414 94.861C343.848 96.0947 344.042 97.3995 343.987 98.7057C343.955 99.3584 343.791 99.9979 343.504 100.585C343.217 101.173 342.813 101.696 342.317 102.122C341.492 102.773 340.34 103.144 339.942 104.115C339.785 104.6 339.74 105.114 339.809 105.618C339.998 108.637 340.175 111.709 339.462 114.648C338.75 117.588 337.005 120.428 334.27 121.731C336.517 121.89 338.812 122.045 340.993 121.479C343.174 120.913 345.259 119.487 346.011 117.368C346.382 116.322 346.417 115.159 346.944 114.183C348.278 111.711 351.961 111.598 353.77 109.448C354.494 108.588 354.844 107.479 355.104 106.386C356.631 99.954 355.558 93.1239 353.232 86.9341C352.431 84.8006 351.433 82.6524 349.714 81.153C348.251 79.877 346.382 79.1739 344.535 78.5735C341.838 77.6973 339.061 76.9794 336.227 76.8868C334.995 76.8147 333.761 76.9585 332.58 77.3117C331.413 77.7321 330.328 78.3491 329.371 79.1357C324.931 82.5828 321.908 88.0921 322.309 93.691C322.552 97.0789 323.99 100.285 325.839 103.137C326.485 104.135 328.012 106.262 329.431 105.635C330.719 105.066 331.268 102.616 331.099 101.413Z" fill="#2F2E41"/>
<path d="M154.8 139.917H168.918V125.83H154.8V139.917ZM225.671 125.83H211.553V139.917H225.671V125.83ZM183.176 139.917H197.294V125.83H183.176V139.917Z" fill="#217DBD"/>
<path d="M72.7786 83.8498C79.3391 83.8498 84.6575 79.7104 84.6575 74.6043C84.6575 69.4982 79.3391 65.3589 72.7786 65.3589C66.218 65.3589 60.8997 69.4982 60.8997 74.6043C60.8997 79.7104 66.218 83.8498 72.7786 83.8498Z" fill="#2F2E41"/>
<path d="M74.798 138.256C74.798 138.256 85.489 138.967 87.3896 137.544C89.2902 136.122 97.3679 139.441 98.0806 141.337C98.7934 143.234 86.6769 143.471 84.7762 143.471C82.8756 143.471 73.8477 146.316 73.8477 146.316L74.798 138.256Z" fill="#A0616A"/>
<path d="M52.7831 248.684C52.7831 248.684 47.8007 261.221 50.4002 262.735C52.9998 264.248 80.295 263.167 80.295 263.167C80.295 263.167 84.8442 260.357 79.6451 258.411C79.6451 258.411 75.3125 258.195 72.4963 256.466C69.6802 254.737 66.4307 251.494 66.4307 251.494C66.4307 251.494 66.2141 246.739 64.4811 247.82C63.9626 248.161 63.5213 248.606 63.1855 249.127C62.8498 249.648 62.627 250.234 62.5314 250.846L52.7831 248.684Z" fill="#2F2E41"/>
<path opacity="0.1" d="M52.7831 248.684C52.7831 248.684 47.8007 261.221 50.4002 262.735C52.9998 264.248 80.295 263.167 80.295 263.167C80.295 263.167 84.8442 260.357 79.6451 258.411C79.6451 258.411 75.3125 258.195 72.4963 256.466C69.6802 254.737 66.4307 251.494 66.4307 251.494C66.4307 251.494 66.2141 246.739 64.4811 247.82C63.9626 248.161 63.5213 248.606 63.1855 249.127C62.8498 249.648 62.627 250.234 62.5314 250.846L52.7831 248.684Z" fill="black"/>
<path d="M135.671 171.648L100.906 137.1L135.635 102.551L125.047 92.0212L79.7647 137.1L125.082 182.178L135.671 171.648Z" fill="#217DBD"/>
<path d="M45.1007 252.52C45.1007 252.52 39.6364 266.269 42.4873 267.929C45.3383 269.588 75.2731 268.403 75.2731 268.403C75.2731 268.403 80.2622 265.321 74.5604 263.188C74.5604 263.188 69.8088 262.95 66.7203 261.054C63.6318 259.157 60.0681 255.601 60.0681 255.601C60.0681 255.601 59.8305 250.386 57.9299 251.571C57.3613 251.945 56.8773 252.434 56.509 253.005C56.1408 253.577 55.8965 254.219 55.7917 254.89L45.1007 252.52Z" fill="#2F2E41"/>
<path d="M73.1349 165.281L69.8088 195.151C69.8088 195.151 68.6209 209.374 65.0573 212.456C65.0573 212.456 65.0573 216.96 63.8694 218.383L62.2063 237.111C62.2063 237.111 64.5821 243.985 64.3445 245.171C64.1069 246.356 65.2948 250.149 65.0573 250.623C64.8197 251.097 53.6535 250.623 53.6535 250.623L56.0293 212.456L63.3942 159.354L73.1349 165.281Z" fill="#2F2E41"/>
<path opacity="0.1" d="M73.1349 165.281L69.8088 195.151C69.8088 195.151 68.6209 209.374 65.0573 212.456C65.0573 212.456 65.0573 216.96 63.8694 218.383L62.2063 237.111C62.2063 237.111 64.5821 243.985 64.3445 245.171C64.1069 246.356 65.2948 250.149 65.0573 250.623C64.8197 251.097 53.6535 250.623 53.6535 250.623L56.0293 212.456L63.3942 159.354L73.1349 165.281Z" fill="black"/>
<path d="M67.1955 164.332C67.1955 164.332 64.5821 188.75 63.3942 193.965C62.6473 197.4 62.1707 200.887 61.9687 204.396C61.9687 204.396 61.7312 211.982 59.593 214.116C58.9674 214.734 58.4758 215.473 58.1489 216.289C57.8219 217.105 57.6665 217.979 57.6923 218.857C57.6923 218.857 55.5541 242.8 56.742 245.645C57.9299 248.49 59.1178 250.86 57.9299 252.757C56.742 254.653 43.6752 254.653 43.6752 253.231C43.6752 251.808 43.6752 250.623 42.9625 249.912C42.2498 249.201 42.9625 244.697 42.9625 244.697C42.9625 244.697 40.1116 223.598 42.7249 217.434C45.3383 211.271 46.5262 194.439 46.5262 194.439C46.5262 194.439 44.6255 175.237 42.2498 172.156C39.874 169.074 42.7249 158.169 42.7249 158.169L67.1955 164.332Z" fill="#2F2E41"/>
<path d="M60.5067 88.5058C60.7828 89.1336 61.4439 89.4832 62.0458 89.814C65.5339 91.7315 68.4537 94.5116 71.3303 97.2596C70.6125 94.8324 70.7654 92.2314 71.7628 89.9047C72.1062 89.111 72.5564 88.258 72.3109 87.4289C72.1303 86.8193 71.6101 86.3796 71.1061 85.9907C69.9323 85.0849 68.7055 84.2497 67.4321 83.4895C66.5426 82.9584 64.7137 81.5448 63.6929 81.6986C63.6393 83.0748 63.6113 84.3053 63.0073 85.5916C62.864 85.8967 60.6122 88.7458 60.5067 88.5058Z" fill="#A0616A"/>
<path d="M72.6598 91.5543C78.0394 91.5543 82.4005 87.2027 82.4005 81.8347C82.4005 76.4667 78.0394 72.1151 72.6598 72.1151C67.2801 72.1151 62.9191 76.4667 62.9191 81.8347C62.9191 87.2027 67.2801 91.5543 72.6598 91.5543Z" fill="#A0616A"/>
<path d="M73.1349 104.83C73.1349 104.83 74.7979 96.5326 70.0463 93.6878C65.2948 90.8431 59.8305 87.5242 59.8305 87.5242C59.8305 87.5242 58.1674 87.2871 57.4547 90.8431C57.4547 90.8431 43.9128 93.4508 42.4873 106.252C41.0618 119.054 43.4376 137.781 43.4376 137.781C43.4376 137.781 41.2994 154.139 38.686 162.91C38.686 162.91 36.5478 164.807 46.051 161.962C55.5541 159.117 72.1845 170.022 72.1845 170.022C72.1845 170.022 73.8476 168.362 73.8476 167.177C73.8476 165.992 75.7482 159.117 75.7482 159.117C75.7482 159.117 77.4113 129.958 78.124 126.64C78.8367 123.321 75.2731 105.304 73.1349 104.83Z" fill="#575A89"/>
<path d="M70.3641 82.836C70.9493 82.5124 71.6055 82.338 72.2745 82.3283C72.9442 82.3183 73.5982 82.1239 74.1642 81.7665C75.0844 81.0616 75.1519 79.6994 75.825 78.7568C76.7995 77.392 78.7436 77.2277 80.4217 77.296C81.448 77.3377 82.5533 77.3989 83.4176 76.845C84.3048 76.2763 84.707 75.2049 85.0062 74.1959C85.3599 73.0027 85.5888 71.5436 84.7121 70.6586C84.1033 70.0441 83.1424 69.9226 82.4661 69.3829C81.7649 68.8233 81.4763 67.9127 81.0952 67.1015C80.6614 66.1131 79.9754 65.2556 79.1055 64.6147C77.8297 63.7302 76.2003 63.5319 74.6469 63.5485C73.0935 63.565 71.5336 63.7688 69.9918 63.5786C68.7287 63.4228 67.4692 63.0035 66.2101 63.1894C64.6057 63.4262 63.2784 64.6339 62.4879 66.047C61.6973 67.4601 61.3581 69.073 61.0292 70.6577L60.1346 74.9677C59.8571 76.3044 59.5785 77.6767 59.7927 79.025C60.2367 81.8201 62.7139 84.0418 62.8846 86.8666C63.0473 86.0866 63.4015 85.359 63.9155 84.7493C64.4294 84.1395 65.087 83.6665 65.8292 83.3728C66.0153 83.282 66.2267 83.2564 66.4292 83.3002C66.6753 83.3787 66.8191 83.624 66.9745 83.8301C67.3814 84.3699 68.6599 85.189 69.3845 84.806C70.033 84.4634 69.5489 83.3877 70.3641 82.836Z" fill="#2F2E41"/>
<path d="M45.8134 127.114C45.8134 127.114 44.1504 137.544 51.0401 136.596C51.0401 136.596 54.6038 136.122 55.079 136.596C55.5541 137.07 73.1349 133.988 75.5107 131.381C75.5107 131.381 78.3616 130.433 79.7871 131.855C81.2126 133.277 95.4672 134.7 91.1908 130.433C86.9144 126.165 80.2622 125.217 80.2622 125.217L71.2343 125.691C71.2343 125.691 66.4827 127.114 63.6318 125.691C60.7808 124.269 52.7032 124.743 52.7032 124.743L45.8134 127.114Z" fill="#A0616A"/>
<path d="M55.5541 94.162C55.5541 94.162 44.8631 95.3473 44.8631 110.756V130.433C44.8631 130.433 50.8025 127.825 51.9904 128.062C53.1783 128.299 57.9299 124.98 57.9299 124.98C57.9299 124.98 63.3942 112.179 62.919 108.623C62.4439 105.067 62.6815 94.6361 55.5541 94.162Z" fill="#575A89"/>
<path d="M72.6598 80.5309C77.7114 80.5309 81.8065 78.4082 81.8065 75.7896C81.8065 73.1711 77.7114 71.0484 72.6598 71.0484C67.6081 71.0484 63.513 73.1711 63.513 75.7896C63.513 78.4082 67.6081 80.5309 72.6598 80.5309Z" fill="#2F2E41"/>
<path d="M64.107 84.5609C65.8783 84.5609 67.3143 81.0053 67.3143 76.6193C67.3143 72.2333 65.8783 68.6777 64.107 68.6777C62.3356 68.6777 60.8997 72.2333 60.8997 76.6193C60.8997 81.0053 62.3356 84.5609 64.107 84.5609Z" fill="#2F2E41"/>
</svg>
