<svg xmlns="http://www.w3.org/2000/svg" viewBox="0 0 357.7 94.04"><defs><style>.cls-1{fill:#fff;}.cls-2{fill:#12a9cc;}</style></defs><g id="Layer_2" data-name="Layer 2"><g id="Layer_1-2" data-name="Layer 1"><path class="cls-1" d="M0,44.08H10.05c0,4,5.69,5,7.94,5,1.5,0,3.3-.45,3.3-2.55s-5.62-2.62-11-4.49c-5.1-1.8-10-5-10-12,0-7.64,7.87-10.87,13.19-10.87,5.1,0,9.6,2.63,11.17,5.85l.6-4.95h9.23v13.5H24.74c0-3.15-3.9-5.7-7.65-5.7a2.61,2.61,0,0,0-2.92,2.7c0,2.1,4.42,3,9.22,4.64,5.7,2,12.07,4.13,12.07,12,0,7.05-6.67,11.24-13.94,11.24-5.4,0-9.68-2.62-11.47-5.47l-.68,4.57H0Z"/><path class="cls-1" d="M37.78,38.68C37.86,26.16,48,19.19,58.33,19.19c11.84.15,20.61,7.27,20.84,19.79S70.1,58.55,58.7,58.55C48,58.55,37.63,52,37.78,38.68Zm26,.3c0-5.62-1.95-10-5.47-10-2.93,0-5.18,4.35-5.18,9.82C53.15,44.9,55.55,49,58.7,49S63.8,44.6,63.8,39Z"/><path class="cls-1" d="M106.31,10.5a9.71,9.71,0,0,0-4.13-.75c-1.65,0-2.4,1.27-2.4,4v6.37h6.82v9.75H99.78V47.75h4.5v9.82H81.94V47.75h3V29.84H81.87V20.09h3.07V13.72C84.94,9.45,86.29,0,99.78,0c3.9,0,9.07.9,11,1.87Z"/><path class="cls-1" d="M114.1,20.09v-6.9l13.8-4.42V20.09H135v9.75H127.9V43.18c0,2.55-.53,6,2.39,6A17.28,17.28,0,0,0,135,47.9v9.6A34.85,34.85,0,0,1,126,58.92c-11.25,0-11.62-6.14-11.85-15.74V29.84h-4V20.09Z"/><path class="cls-1" d="M157.43,46.11a82.86,82.86,0,0,1,3.08-17.62l2.4-8.4h13.86l2.85,9.75a104.35,104.35,0,0,1,3.23,16.27H183a76.52,76.52,0,0,1,2-11.85l1.27-4.42h-3.07V20.09h18.29v9.75h-3.07l-8.77,27.73H173.85l-5.17-16.94-5.4,16.94H147.84l-8.47-27.73h-3.23V20.09h20.17v9.75h-2.55l1.65,5.47a61.55,61.55,0,0,1,1.87,10.8Z"/><path class="cls-1" d="M204.21,23.24c3-1.8,9.45-5.32,16.35-5.32,9,0,20.31,3.37,20.31,15.44V48h4.5v9.59h-16l-1.8-3.37C224.76,58,220.11,59,217.41,59c-7.12,0-14.77-3.82-14.77-12.52,0-8.47,7.12-13.79,15.59-13.79a10.62,10.62,0,0,1,7.42,2.62V32.69c0-3.38-3.07-4.2-7.12-4.2-4.42,0-8.32,1.87-11.17,3.45Zm21.44,20.69c-.22-.37-1.27-2.17-4.42-2.17-3,0-4.35,1.65-4.35,4,0,2.1,1.73,3.52,4,3.52a5.88,5.88,0,0,0,4.79-2.47Z"/><path class="cls-1" d="M248.37,57.57V47.75h3.3V29.84h-3.22V20.09h14.09l2.25,4.8c1.95-3.6,3.9-6.67,11.62-6.67V31.71c-6.75,0-10.57,1.73-10.57,8.32v7.72h3.75v9.82Z"/><path class="cls-1" d="M317,52.4c-5.55,4.8-11.54,6.52-19.34,6.52-9.3,0-19.79-5.92-19.79-20.31,0-12.3,8.84-19.57,20.16-19.57C307,19,313.82,23.61,316,29.91c.9,2.63,1.73,8.4.15,12.67H292.53c.45,2,1.42,6.15,7.72,6.15a15.28,15.28,0,0,0,10.49-3.6Zm-13-17.24c-.07-2.85-.75-6-5.55-6-4.57,0-5.62,4.13-5.77,6Z"/><path class="cls-2" d="M175.08,84.87c0-10.44,9.16-22.46,19.9-22.46a10.33,10.33,0,0,1,3.83.6c3.23-9.84,6.69-19,7.07-19.91a2.76,2.76,0,0,1,2.63-1.65c1.57,0,3.15,1,3.15,2.63a2.26,2.26,0,0,1-.15,1c-1.58,4.28-15.25,33.65-15.25,42.89,0,2,.6,3.08,1.35,3.08,3.53,0,10.07-10.22,11-11.94a1.6,1.6,0,0,1,1.35-.83,1.44,1.44,0,0,1,1.5,1.43,1.75,1.75,0,0,1-.3,1C209.86,83.07,202.87,94,197.61,94c-3.08,0-4.73-2.78-4.73-7.44a14.64,14.64,0,0,1,.08-1.8C189.65,90,185.59,94,181.46,94S175.08,90.43,175.08,84.87Zm22.76-19a3.25,3.25,0,0,0-1.73-.45c-8.19,0-16.3,15-16.3,22.77,0,2.4,1.28,2.85,2.1,2.85,5,0,13.15-14.65,14.35-20.13a2.91,2.91,0,0,1,.3-.83C196.94,68.64,197.39,67.29,197.84,65.86Z"/><path class="cls-2" d="M221.88,64.74a5.62,5.62,0,0,1,4.51-2.33c4.05,0,5.86,3.91,5.86,8.94a28.15,28.15,0,0,1-1.81,9.54,17,17,0,0,0,2.86.22,6.56,6.56,0,0,0,4.81-2,1.65,1.65,0,0,1,1.12-.6,1.51,1.51,0,0,1,1.43,1.57c0,1.36-3.53,4.13-8,4.13a16.43,16.43,0,0,1-3.38-.37C226.54,89.45,222.1,94,216.69,94c-4.88,0-8.93-3.91-8.93-9.47C207.76,76.68,214,65.94,221.88,64.74Zm-2.26,5.93a25.75,25.75,0,0,0-6.08,15.85c0,2.63,1,4.51,3.31,4.51,4.13,0,7.28-3.83,9.46-8.41A12.39,12.39,0,0,1,219.55,72,8.29,8.29,0,0,1,219.62,70.67Zm4-2.78a9.39,9.39,0,0,0-1.06,4.44,8.83,8.83,0,0,0,4.89,7.51,27.32,27.32,0,0,0,1.8-8.79c0-2-.75-5.64-2.85-5.64a1.52,1.52,0,0,0-.83.23,3.1,3.1,0,0,0,.07.37c0,.83-.67,1.73-1.35,1.73A2.31,2.31,0,0,0,223.61,67.89Z"/><path class="cls-2" d="M267.78,43.55a3.07,3.07,0,0,1,2.93-2.1,3,3,0,0,1,2.93,3c0,.3-.08,1.13-.23,1.13l-8.33,21.86c2.78-3,5.78-5,8.71-5,4.13,0,6.39,3.45,6.39,9C280.18,81.87,271,94,260.27,94c-6.24,0-6.61-4.36-6.61-5.56a1.23,1.23,0,0,1,1.05-1.21,1.61,1.61,0,0,1-.15-.6,1,1,0,0,1,.07-.45Zm-9.92,42.67-.37,1a1.68,1.68,0,0,1-1.05,1c.52,1.12.67,2.85,2.7,2.85,8.19,0,16.3-15.1,16.3-22.91,0-2.41-1.27-2.71-2.1-2.71-3.91,0-10.22,8.79-13.37,15.25l-1.73,4.59A3,3,0,0,1,257.86,86.22Z"/><path class="cls-2" d="M299.11,62.41c3.6,0,4.8,2.25,4.8,4.88,0,6.39-8.11,16.6-15.17,16.6a5.87,5.87,0,0,1-1.65-.15,12.08,12.08,0,0,0-.23,2.18c0,3.46,2,5,5.49,5,5.71,0,11.87-7.36,14.57-11.79a1.61,1.61,0,0,1,1.35-.83,1.44,1.44,0,0,1,1.5,1.43,1.75,1.75,0,0,1-.3,1C307.22,84.57,301,94,291.9,94c-6.09,0-10.3-3.84-10.3-10.22C281.6,74.43,290.32,62.41,299.11,62.41ZM287.76,80.89h.68c6,0,12.47-9.47,12.47-13.6,0-1.12-.15-1.88-1.43-1.88C295.28,65.41,289.87,74,287.76,80.89Z"/><path class="cls-2" d="M324.42,90.88c-.37.9-.67,1.5-.67,1.5A2.77,2.77,0,0,1,321.12,94C319.54,94,318,93,318,91.41a2.24,2.24,0,0,1,.15-1v.07c.23,0,8.72-17.57,8.72-23.28,0-1.13-.3-1.81-1.05-1.81-4.29,0-16.53,21.19-18.94,25.47l-.9,2.18a1.42,1.42,0,0,1-1.42,1A1.51,1.51,0,0,1,303,92.53a.9.9,0,0,1,.08-.45l8.11-27.57a3.07,3.07,0,0,1,2.93-2.1,3,3,0,0,1,2.93,3c0,.3-.07,1.13-.22,1.13L314,73.38c4.13-5.86,8.57-11,11.72-11,3.53,0,4.81,2.7,4.81,6.46a33.45,33.45,0,0,1-1.35,8.49c5-7.29,11.64-15,17.58-15,3.08,0,4.2,1.73,4.2,4.28,0,6.76-8,19.68-8,23.36,0,.61.22,1,.83,1,3.53,0,10.06-10.22,11-11.94a1.6,1.6,0,0,1,1.35-.83,1.44,1.44,0,0,1,1.5,1.43,1.75,1.75,0,0,1-.3,1C356.05,83.07,349.06,94,343.81,94c-3.61,0-5.26-2.26-5.26-5.19,0-8.79,8.64-20.66,8.64-23a.43.43,0,0,0-.45-.45C339.37,65.41,326.9,86.6,324.42,90.88Z"/></g></g></svg>