<svg width="24" height="24" viewBox="0 0 24 24" fill="none" xmlns="http://www.w3.org/2000/svg">
<path d="M12.3724 3.4942C7.84841 3.4942 4.16779 7.17483 4.16779 11.6988C4.16779 16.2228 7.84841 19.9034 12.3724 19.9034C16.8965 19.9034 20.5771 16.2228 20.5771 11.6988C20.5771 7.17483 16.8965 3.4942 12.3724 3.4942ZM19.0655 10.9632H16.0213C15.8135 8.67956 14.6992 6.4852 13.8719 5.13394C16.6326 5.76422 18.7525 8.09615 19.0655 10.9632ZM14.5427 10.9632H10.187C10.4253 8.79736 11.633 6.65353 12.3714 5.51658C13.1064 6.6525 14.3065 8.793 14.5427 10.9632ZM10.8677 5.13506C10.0361 6.48675 8.91697 8.68026 8.70819 10.9632H5.67936C5.99216 8.09803 8.10955 5.76712 10.8677 5.13506ZM5.67936 12.4344H8.70819C8.91697 14.7174 10.0361 16.9109 10.8677 18.2626C8.10955 17.6305 5.99216 15.2997 5.67936 12.4344ZM12.3702 17.8811C11.6315 16.7457 10.4245 14.6048 10.1868 12.4344H14.5425C14.3056 14.6003 13.1048 16.7438 12.3702 17.8811ZM13.8719 18.2638C14.6992 16.9125 15.8135 14.7182 16.0213 12.4345H19.0656C18.7525 15.3015 16.6326 17.6335 13.8719 18.2638Z" fill="white"/>
<path d="M20.5588 3.44123C18.3397 1.22213 15.3892 0 12.2509 0C9.11255 0 6.16209 1.22213 3.94298 3.44123C2.04581 5.33841 0.846797 7.84992 0.566766 10.5133C0.303422 13.0186 0.85725 15.5629 2.12869 17.7182L0 24L6.28181 21.8713C8.43708 23.1427 10.9811 23.6965 13.4867 23.4332C16.1501 23.1532 18.6616 21.9542 20.5588 20.057C22.7779 17.8379 24 14.8874 24 11.7492C24 8.61084 22.7779 5.66034 20.5588 3.44123ZM19.5184 19.0167C16.1493 22.3858 10.7857 22.9854 6.76472 20.4425L6.46795 20.2548L2.34961 21.6504L3.74513 17.532L3.55748 17.2353C1.01447 13.2144 1.61414 7.85072 4.98323 4.48158C8.99058 0.474235 15.5111 0.474235 19.5184 4.48158C23.5258 8.48892 23.5258 15.0093 19.5184 19.0167Z" fill="white"/>
</svg>
